<?xml version="1.0" encoding="UTF-8"?>
<svg width="129px" height="145px" viewBox="0 0 129 145" version="1.1" xmlns="http://www.w3.org/2000/svg" xmlns:xlink="http://www.w3.org/1999/xlink">
    <!-- Generator: Sketch 62 (91390) - https://sketch.com -->
    <title>BTN video</title>
    <desc>Created with Sketch.</desc>
    <defs>
        <polygon id="path-1" points="0 0.0182926829 70.9618157 0.0182926829 70.9618157 59.8170732 0 59.8170732"></polygon>
    </defs>
    <g id="Page-1" stroke="none" stroke-width="1" fill="none" fill-rule="evenodd">
        <g id="Page-3" transform="translate(-39.000000, -162.000000)">
            <g id="BTN-video" transform="translate(40.000000, 163.000000)">
                <rect id="Rectangle" fill="#303030" x="8" y="8" width="111" height="127" rx="5"></rect>
                <rect id="Rectangle" stroke="#FFFFFF" x="0" y="0" width="127" height="143" rx="5"></rect>
                <text id="Ver-video-&gt;" font-family="GuardianSans-Light, Guardian Sans" font-size="13" font-weight="300" line-spacing="17" letter-spacing="0.5" fill="#E1E1E1">
                    <tspan x="33" y="108">Ver video &gt;</tspan>
                </text>
                <g id="Group-6" transform="translate(28.000000, 28.000000)">
                    <g id="Group-3">
                        <mask id="mask-2" fill="white">
                            <use xlink:href="#path-1"></use>
                        </mask>
                        <g id="Clip-2"></g>
                        <path d="M38.7753389,50.0762195 L47.5683304,50.0762195 L47.4930767,55.4279268 L43.6465539,55.4279268 L43.3888283,55.4268293 L43.3802435,55.4268293 C43.3734853,55.4268293 43.3669098,55.4277439 43.3601515,55.4279268 L38.7753389,55.4279268 L38.7753389,50.0762195 Z M23.5693451,55.427561 L32.186075,55.427561 L32.186075,50.012561 L23.5693451,50.012561 L23.5693451,55.427561 Z M8.36316872,55.427561 L16.9800812,55.427561 L16.9800812,50.012561 L8.36316872,50.012561 L8.36316872,55.427561 Z M8.10982682,13.8887195 L62.8514044,13.8887195 L62.8514044,45.8689024 L55.5063158,45.8689024 L55.5064984,45.8689024 L41.040621,45.8689024 L8.10982682,45.8689024 L8.10982682,13.8887195 Z M8.36316872,9.74469512 L16.9800812,9.74469512 L16.9800812,4.33006098 L8.36316872,4.33006098 L8.36316872,9.74469512 Z M23.5693451,9.74469512 L32.186075,9.74469512 L32.186075,4.33006098 L23.5693451,4.33006098 L23.5693451,9.74469512 Z M38.7753389,9.74469512 L47.3920687,9.74469512 L47.3920687,4.33006098 L38.7753389,4.33006098 L38.7753389,9.74469512 Z M53.9813327,9.74469512 L62.5980625,9.74469512 L62.5980625,4.33006098 L53.9813327,4.33006098 L53.9813327,9.74469512 Z M53.9619713,50.0762195 L62.9244662,50.0762195 L62.9244662,55.5038415 L53.8861697,55.4683537 L53.9619713,50.0762195 Z M70.9618157,3.40243902 C70.9618157,1.53347561 69.4487052,0.0182926829 67.5823407,0.0182926829 L3.3790732,0.0182926829 C1.5127087,0.0182926829 -3.6530916e-05,1.53347561 -3.6530916e-05,3.40243902 L-3.6530916e-05,56.3553659 C-3.6530916e-05,58.2246951 1.5127087,59.7395122 3.3790732,59.7395122 L46.9257516,59.7395122 L66.5691557,59.8170732 L66.5777405,59.8170732 C66.8687092,59.8170732 67.1459789,59.7585366 67.3991381,59.6531707 C69.4035895,59.4263415 70.9618157,57.7236585 70.9618157,55.6554878 L70.9618157,42.6230488 L70.9618157,42.6230488 L70.9618157,3.40243902 Z" id="Fill-1" fill="#FFFFFF" mask="url(#mask-2)"></path>
                    </g>
                    <path d="M42.6315789,29.9995472 C42.6315789,29.478756 42.407173,28.983949 42.018585,28.6494706 L31.2350892,19.3588941 C30.7249779,18.91882 30.0135823,18.8233601 29.4097294,19.1128728 C28.8065936,19.402017 28.4210526,20.0245339 28.4210526,20.709155 L28.4210526,39.2912294 C28.4210526,39.9758506 28.8065936,40.5981832 29.4097294,40.8871431 C29.6411257,40.9986359 29.8886534,41.0526316 30.1342094,41.0526316 C30.52925,41.0526316 30.9205265,40.9120216 31.2350892,40.6409375 L42.018585,31.3499924 C42.407173,31.0153297 42.6315789,30.5205227 42.6315789,29.9995472" id="Fill-4" fill="#FFFFFF"></path>
                </g>
            </g>
        </g>
    </g>
</svg>