<?xml version="1.0" encoding="UTF-8"?>
<svg width="408px" height="60px" viewBox="0 0 408 60" version="1.1" xmlns="http://www.w3.org/2000/svg" xmlns:xlink="http://www.w3.org/1999/xlink">
    <!-- Generator: Sketch 62 (91390) - https://sketch.com -->
    <title>Group 2</title>
    <desc>Created with Sketch.</desc>
    <g id="Page-1" stroke="none" stroke-width="1" fill="none" fill-rule="evenodd">
        <g id="Home" transform="translate(-516.000000, -25.000000)">
            <g id="Group-2" transform="translate(516.000000, 25.000000)">
                <g id="Group">
                    <g id="Group-11">
                        <g id="Group-3" transform="translate(5.000000, 0.000000)"></g>
                        <path d="M402.776892,41.1243719 C401.886,43.9086055 400.602433,46.6708543 397.27478,48.0150754 C396.397857,48.3668342 395.547319,48.4437814 394.864405,48.5034548 C394.403438,48.5442839 394.003002,48.580402 393.694139,48.6824749 C393.115214,48.8771985 392.666664,49.4032663 391.980646,50.2434045 C391.622116,50.683103 391.254274,51.1353643 390.808828,51.5719221 C387.608445,54.7094849 383.32937,56.4227387 378.435671,56.5279523 C377.583581,56.5467965 376.729939,56.5530779 375.879401,56.5530779 C375.035071,56.5530779 374.190741,56.5467965 373.347963,56.5405151 C372.512946,56.5342337 371.677929,56.5279523 370.844463,56.5279523 L332.380895,56.5279523 L230.075749,56.5279523 L189.872303,56.5279523 L91.0748508,56.5279523 L47.1495239,56.5279523 C45.7464464,56.5279523 44.2673172,56.5813442 42.7012717,56.6347362 C41.032789,56.6928392 39.3084317,56.7525126 37.5654494,56.7525126 C31.2655694,56.7525126 24.1787865,56.0364322 19.3797649,50.7223618 C19.1454013,50.4616834 18.9296626,50.196294 18.7185802,49.9356156 C18.2281239,49.3278894 17.9301251,48.9761307 17.5126165,48.776696 C17.2456592,48.6494975 16.7846924,48.611809 16.2973403,48.5725503 C15.7153115,48.5270101 15.0541267,48.4736181 14.3619005,48.2584799 C10.5872496,47.0807161 9.14071394,43.9902638 8.22498859,41.1243719 C7.92854192,40.196294 7.22855526,40 6.69464082,40 C6.08312254,40 5.47781257,40.2716709 5.1875742,40.6752513 C5.05254351,40.8636935 4.89423168,41.1871859 5.09600167,41.8184673 C6.17779923,45.1978643 8.9622251,50.9846106 15.4685313,51.7823492 L16.210424,51.875 L16.7008803,52.4450377 C20.7843945,57.1937814 26.5348392,59.7251884 33.3313837,59.7581658 C34.3495461,59.7644472 35.3677085,59.7660176 36.3843189,59.7660176 C37.4024813,59.7660176 38.4237479,59.7644472 39.4419103,59.7628769 C40.4631768,59.7613065 41.4844434,59.7581658 42.5072621,59.7581658 L82.1473048,59.7581658 L181.939638,59.7581658 L220.704309,59.7581658 L316.535742,59.7581658 L361.035338,59.7581658 C363.06235,59.7581658 365.151445,59.8194095 367.17225,59.8790829 C369.207022,59.9387563 371.310086,60 373.363484,60 C376.557658,60 379.127898,59.8508166 381.456013,59.5288945 C386.418002,58.8426508 390.982661,56.3269472 394.308761,52.4450377 L394.799217,51.8734296 L395.54111,51.7807789 C402.04276,50.9798995 404.824082,45.196294 405.904327,41.8184673 C406.104545,41.1903266 405.949338,40.8652638 405.812755,40.6768216 C405.520964,40.2716709 404.915654,40 404.302584,40 C403.528098,40 403.01436,40.3784548 402.776892,41.1243719 Z" id="Fill-4" fill="#5C5C5C"></path>
                        <path d="M8.70817838,18.5936923 C9.60064942,15.866 10.8827035,13.1598462 14.2104564,11.8429231 C15.0889583,11.4983077 15.939522,11.4244615 16.6209042,11.3644615 C17.0834371,11.3244615 17.4823328,11.2890769 17.7927575,11.1875385 C18.3701475,10.9983077 18.8202633,10.4829231 19.5063019,9.65984615 C19.8632903,9.22907692 20.2326958,8.786 20.6781552,8.35830769 C23.878634,5.28446154 28.1578386,3.606 33.0516842,3.50292308 C33.9022479,3.48446154 34.7559158,3.47830769 35.6080317,3.47830769 C36.4508347,3.47830769 37.29519,3.48446154 38.1395452,3.49061538 C38.9730355,3.49676923 39.808078,3.50292308 40.6415683,3.50292308 L79.1078463,3.50292308 L181.414518,3.50292308 L221.620727,3.50292308 L320.419599,3.50292308 L364.3478,3.50292308 C365.75092,3.50292308 367.230093,3.45061538 368.794634,3.39830769 C370.464719,3.34138462 372.189128,3.28292308 373.930611,3.28292308 C380.232232,3.28292308 387.317676,3.98446154 392.116842,9.19061538 C392.351213,9.446 392.56851,9.706 392.779599,9.96138462 C393.27007,10.5567692 393.566526,10.9013846 393.984047,11.0967692 C394.251012,11.2213846 394.711993,11.2583077 395.19936,11.2952308 C395.782958,11.3413846 396.442611,11.3936923 397.134858,11.6044615 C400.909622,12.7583077 402.356202,15.786 403.271954,18.5936923 C403.569962,19.5029231 404.268418,19.6936923 404.802348,19.6936923 C405.413885,19.6936923 406.019213,19.4290769 406.30946,19.0336923 C406.444495,18.8490769 406.602812,18.5321538 406.401036,17.9136923 C405.320758,14.6029231 402.536248,8.93369231 396.028194,8.15215385 L395.287831,8.06138462 L394.795808,7.50292308 C390.713723,2.85061538 384.961553,0.370615385 378.164804,0.338307692 C377.146611,0.332153846 376.12997,0.330615385 375.113329,0.330615385 C374.093584,0.330615385 373.073839,0.332153846 372.054093,0.333692308 C371.032796,0.335230769 370.011499,0.338307692 368.990202,0.338307692 L329.348966,0.338307692 L229.552078,0.338307692 L190.78624,0.338307692 L94.9519236,0.338307692 L50.4509892,0.338307692 C48.4239158,0.338307692 46.3363097,0.278307692 44.3154448,0.219846154 C42.2790587,0.161384615 40.1759313,0.101384615 38.1240239,0.101384615 C34.9297537,0.101384615 32.3578849,0.247538462 30.0312517,0.562923077 C25.0675606,1.23523077 20.5043174,3.69984615 17.1765645,7.50292308 L16.6860934,8.06292308 L15.9441784,8.15369231 C9.44388494,8.93830769 6.66092741,14.6044615 5.58064942,17.9136923 C5.38042548,18.5290769 5.53718996,18.8475385 5.67222471,19.0321538 C5.96402394,19.4290769 6.57090425,19.6952308 7.18244093,19.6952308 C7.95695058,19.6952308 8.47070347,19.3244615 8.70817838,18.5936923 Z" id="Fill-1" fill="#5C5C5C"></path>
                        <path d="M3.79664,26.39424 C1.70224,26.39424 -0.00016,28.03424 -0.00016,30.05344 C-0.00016,32.07104 1.70224,33.71104 3.79664,33.71104 C5.89264,33.71104 7.59504,32.07104 7.59504,30.05344 C7.59504,28.03424 5.89264,26.39424 3.79664,26.39424 Z" id="Fill-8" fill="#5C5C5C"></path>
                        <path d="M401,29.5007654 C401,31.4310081 402.568991,33 404.500737,33 C406.431009,33 408,31.4310081 408,29.5007654 C408,27.5689919 406.431009,26 404.500737,26 C402.568991,26 401,27.5689919 401,29.5007654 Z" id="Fill-6" fill="#5C5C5C"></path>
                        <g id="Group-10" transform="translate(0.000000, 26.000000)"></g>
                    </g>
                </g>
                <text id="Re/evoLUZ100" font-family="AGaramondPro-BoldItalic, Adobe Garamond Pro" font-size="35" font-style="italic" font-weight="bold" letter-spacing="5" fill="#303030">
                    <tspan x="51" y="42">RE/EVOLUZ100</tspan>
                </text>
            </g>
        </g>
    </g>
</svg>